<svg width="191" height="71" viewBox="0 0 191 71" fill="none" xmlns="http://www.w3.org/2000/svg">
<rect x="1.23445" y="1.23445" width="73.6862" height="55.1852" rx="5.81694" stroke="#5B88E1" stroke-width="2.4689"/>
<path d="M16.8665 16.5853C16.1656 15.7925 16.2401 14.5817 17.0329 13.8808C17.8257 13.18 19.0365 13.2544 19.7373 14.0472L30.3923 26.0992C30.8101 26.5719 30.7657 27.2937 30.2931 27.7116L28.278 29.493L16.8665 16.5853Z" fill="#5B88E1"/>
<path d="M28.8126 24.8521L30.4633 26.2097C30.9936 26.6458 31.0699 27.4291 30.6338 27.9593L19.5604 41.4241C18.9675 42.145 17.9024 42.2488 17.1815 41.6559C16.4605 41.063 16.3567 39.9979 16.9496 39.2769L28.8126 24.8521Z" fill="#5B88E1"/>
<rect x="28.8038" y="42.7943" width="24.689" height="3.29186" rx="1.64593" fill="#5B88E1"/>
<path d="M92.9029 36.6207H88.4095L87.5602 39.7512H84.7654L89.0416 26.0933H92.3598L96.626 39.7512H93.7522L92.9029 36.6207ZM88.8934 34.5962H92.3993L90.6513 28.1178L88.8934 34.5962ZM98.2972 39.7512V37.944H99.7686V31.0903H98.2972V29.293H101.754L102.238 31.6927C102.619 30.8039 103.1 30.1357 103.679 29.688C104.259 29.2337 104.986 29.0066 105.862 29.0066C106.198 29.0066 106.494 29.0329 106.751 29.0856C107.014 29.1382 107.264 29.2074 107.501 29.293L106.721 31.4853C106.517 31.4327 106.323 31.3932 106.138 31.3668C105.954 31.3339 105.747 31.3175 105.516 31.3175C104.792 31.3175 104.16 31.6006 103.62 32.1668C103.087 32.7264 102.672 33.4868 102.376 34.448V37.944H104.46V39.7512H98.2972ZM105.299 33.3716V30.5965L105.654 29.293H107.501L107.037 33.3716H105.299ZM119.058 27.8215L119.71 29.8559C119.315 29.9941 118.87 30.0929 118.376 30.1521C117.883 30.2048 117.316 30.2311 116.678 30.2311C117.316 30.5077 117.8 30.8599 118.13 31.2878C118.465 31.7092 118.633 32.2458 118.633 32.8976C118.633 33.5757 118.459 34.1814 118.11 34.7147C117.767 35.2479 117.277 35.666 116.638 35.9689C116.006 36.2717 115.252 36.4231 114.377 36.4231C114.107 36.4231 113.867 36.41 113.656 36.3836C113.445 36.3573 113.241 36.3211 113.044 36.275C112.912 36.3474 112.81 36.4528 112.737 36.591C112.665 36.7293 112.629 36.8708 112.629 37.0157C112.629 37.2132 112.705 37.3844 112.856 37.5292C113.014 37.6675 113.35 37.7366 113.863 37.7366H115.641C116.411 37.7366 117.086 37.8683 117.665 38.1316C118.251 38.3884 118.706 38.7373 119.028 39.1784C119.357 39.6195 119.522 40.1265 119.522 40.6993C119.522 41.7527 119.064 42.5756 118.149 43.1682C117.234 43.7607 115.898 44.057 114.14 44.057C112.882 44.057 111.901 43.9286 111.197 43.6718C110.499 43.4151 110.008 43.0398 109.725 42.546C109.442 42.0588 109.301 41.4696 109.301 40.7783H111.622C111.622 41.1141 111.687 41.3906 111.819 41.6078C111.957 41.8251 112.211 41.9864 112.579 42.0917C112.955 42.1971 113.491 42.2497 114.189 42.2497C114.887 42.2497 115.433 42.1938 115.829 42.0819C116.23 41.9699 116.513 41.8086 116.678 41.598C116.842 41.3939 116.925 41.1536 116.925 40.877C116.925 40.5018 116.767 40.2088 116.451 39.9981C116.135 39.7874 115.687 39.6821 115.108 39.6821H113.379C112.326 39.6821 111.559 39.478 111.078 39.0698C110.598 38.655 110.357 38.1777 110.357 37.6378C110.357 37.2692 110.456 36.9169 110.654 36.5812C110.858 36.2388 111.147 35.9491 111.523 35.7121C110.878 35.3697 110.41 34.9616 110.12 34.4875C109.837 34.0069 109.696 33.4275 109.696 32.7494C109.696 31.9923 109.887 31.3339 110.269 30.7743C110.65 30.2147 111.18 29.7802 111.859 29.4707C112.537 29.1613 113.317 29.0066 114.199 29.0066C115.009 29.0132 115.697 28.9638 116.263 28.8584C116.836 28.7531 117.339 28.6083 117.774 28.4239C118.215 28.2396 118.643 28.0388 119.058 27.8215ZM114.248 30.7447C113.63 30.7447 113.156 30.9257 112.826 31.2878C112.504 31.6499 112.342 32.1306 112.342 32.7297C112.342 33.3485 112.51 33.839 112.846 34.2011C113.182 34.5632 113.653 34.7443 114.258 34.7443C114.857 34.7443 115.312 34.5698 115.621 34.2209C115.937 33.8654 116.095 33.3584 116.095 32.7C116.095 32.0417 115.937 31.5512 115.621 31.2286C115.312 30.906 114.854 30.7447 114.248 30.7447ZM124.106 35.3171C124.159 35.9689 124.307 36.4989 124.551 36.907C124.801 37.3152 125.12 37.6148 125.509 37.8057C125.897 37.9967 126.328 38.0921 126.802 38.0921C127.303 38.0921 127.774 38.0131 128.215 37.8551C128.656 37.6971 129.09 37.4765 129.518 37.1934L130.605 38.6847C130.117 39.0928 129.535 39.422 128.857 39.6722C128.185 39.9224 127.444 40.0475 126.635 40.0475C125.502 40.0475 124.548 39.8138 123.771 39.3463C123 38.8789 122.418 38.2304 122.023 37.4008C121.628 36.5713 121.43 35.6166 121.43 34.5369C121.43 33.4967 121.624 32.5585 122.013 31.7224C122.401 30.8862 122.961 30.2246 123.692 29.7374C124.422 29.2436 125.305 28.9967 126.338 28.9967C127.3 28.9967 128.129 29.2074 128.827 29.6287C129.525 30.0501 130.065 30.6558 130.447 31.4458C130.828 32.2293 131.019 33.1741 131.019 34.2801C131.019 34.4579 131.013 34.639 131 34.8233C130.993 35.0076 130.983 35.1722 130.97 35.3171H124.106ZM126.348 30.8336C125.716 30.8336 125.196 31.0607 124.788 31.515C124.386 31.9627 124.149 32.6737 124.077 33.6481H128.481C128.468 32.7659 128.284 32.0779 127.928 31.5841C127.579 31.0837 127.053 30.8336 126.348 30.8336ZM133.727 39.7512V29.293H135.999L136.186 30.5867C136.634 30.06 137.138 29.6649 137.697 29.4016C138.257 29.1317 138.859 28.9967 139.505 28.9967C140.446 28.9967 141.164 29.2699 141.658 29.8164C142.151 30.3562 142.398 31.1167 142.398 32.0976V39.7512H139.791V33.1148C139.791 32.5881 139.758 32.1668 139.692 31.8507C139.626 31.5281 139.501 31.2977 139.317 31.1595C139.133 31.0146 138.866 30.9422 138.517 30.9422C138.234 30.9422 137.961 31.0047 137.697 31.1298C137.441 31.2549 137.197 31.4228 136.967 31.6335C136.743 31.8442 136.532 32.0779 136.335 32.3346V39.7512H133.727ZM154.597 39.1686C154.208 39.4253 153.738 39.636 153.184 39.8006C152.631 39.9652 152.032 40.0475 151.387 40.0475C150.11 40.0475 149.149 39.7183 148.503 39.0599C147.858 38.395 147.536 37.5128 147.536 36.4133V31.1397H145.264V29.293H147.536V26.992L150.143 26.6759V29.293H153.599L153.333 31.1397H150.143V36.4034C150.143 36.9433 150.274 37.3383 150.538 37.5885C150.801 37.8386 151.226 37.9637 151.812 37.9637C152.187 37.9637 152.529 37.9209 152.839 37.8354C153.155 37.7432 153.441 37.628 153.698 37.4897L154.597 39.1686ZM163.428 29.293V37.9045H166.183V39.7512H157.759V37.9045H160.82V31.1397H157.858V29.293H163.428ZM161.739 24.0194C162.22 24.0194 162.608 24.1675 162.904 24.4638C163.207 24.7601 163.359 25.1288 163.359 25.5699C163.359 26.011 163.207 26.383 162.904 26.6858C162.608 26.9821 162.22 27.1302 161.739 27.1302C161.258 27.1302 160.867 26.9821 160.564 26.6858C160.261 26.383 160.109 26.011 160.109 25.5699C160.109 25.1288 160.261 24.7601 160.564 24.4638C160.867 24.1675 161.258 24.0194 161.739 24.0194ZM169.256 39.7512V29.293H171.528L171.715 30.5867C172.163 30.06 172.667 29.6649 173.226 29.4016C173.786 29.1317 174.388 28.9967 175.034 28.9967C175.975 28.9967 176.693 29.2699 177.186 29.8164C177.68 30.3562 177.927 31.1167 177.927 32.0976V39.7512H175.32V33.1148C175.32 32.5881 175.287 32.1668 175.221 31.8507C175.155 31.5281 175.03 31.2977 174.846 31.1595C174.662 31.0146 174.395 30.9422 174.046 30.9422C173.763 30.9422 173.49 31.0047 173.226 31.1298C172.97 31.2549 172.726 31.4228 172.496 31.6335C172.272 31.8442 172.061 32.0779 171.864 32.3346V39.7512H169.256ZM189.444 36.9959C189.444 37.3975 189.504 37.6905 189.622 37.8749C189.741 38.0526 189.931 38.1876 190.195 38.2798L189.632 40.0277C189.072 39.9685 188.595 39.8302 188.2 39.613C187.811 39.3891 187.512 39.0566 187.301 38.6155C186.906 39.0961 186.406 39.455 185.8 39.692C185.201 39.929 184.572 40.0475 183.914 40.0475C182.847 40.0475 182.001 39.7446 181.376 39.1389C180.75 38.5332 180.438 37.7465 180.438 36.7787C180.438 35.666 180.872 34.8101 181.741 34.211C182.617 33.6053 183.855 33.3025 185.455 33.3025H186.916V32.7395C186.916 32.1207 186.725 31.673 186.343 31.3965C185.961 31.1134 185.412 30.9718 184.694 30.9718C184.358 30.9718 183.937 31.0179 183.43 31.1101C182.93 31.1957 182.413 31.3306 181.88 31.515L181.257 29.7275C181.922 29.4773 182.591 29.293 183.262 29.1745C183.94 29.056 184.556 28.9967 185.109 28.9967C186.577 28.9967 187.667 29.3094 188.378 29.9349C189.089 30.5538 189.444 31.4327 189.444 32.5717V36.9959ZM184.763 38.1613C185.158 38.1613 185.557 38.0493 185.958 37.8255C186.366 37.6016 186.686 37.2889 186.916 36.8873V34.8529H185.889C184.921 34.8529 184.22 35.0076 183.786 35.3171C183.358 35.6265 183.144 36.0643 183.144 36.6305C183.144 37.1177 183.282 37.4963 183.558 37.7662C183.835 38.0296 184.237 38.1613 184.763 38.1613ZM93.2091 56.4682C93.2091 55.902 93.1004 55.4444 92.8832 55.0955C92.6725 54.7399 92.3631 54.4799 91.9549 54.3153C91.5467 54.1507 91.0562 54.0684 90.4834 54.0684H89.0712V59.0161H90.5624C91.1023 59.0161 91.5664 58.9338 91.9549 58.7692C92.3499 58.598 92.656 58.3248 92.8733 57.9495C93.0972 57.5742 93.2091 57.0804 93.2091 56.4682ZM96.0137 56.4484C96.0137 57.5084 95.7866 58.3774 95.3323 59.0556C94.8846 59.7271 94.2559 60.2242 93.4461 60.5468C92.6363 60.8628 91.7014 61.0208 90.6414 61.0208H89.0712V65.7512H86.3653V52.0933H90.3847C92.1557 52.0933 93.535 52.4521 94.5225 53.1697C95.5167 53.8873 96.0137 54.9802 96.0137 56.4484ZM98.2972 65.7512V63.944H99.7686V57.0903H98.2972V55.293H101.754L102.238 57.6927C102.619 56.8039 103.1 56.1357 103.679 55.688C104.259 55.2337 104.986 55.0066 105.862 55.0066C106.198 55.0066 106.494 55.0329 106.751 55.0856C107.014 55.1382 107.264 55.2074 107.501 55.293L106.721 57.4853C106.517 57.4327 106.323 57.3932 106.138 57.3668C105.954 57.3339 105.747 57.3175 105.516 57.3175C104.792 57.3175 104.16 57.6006 103.62 58.1668C103.087 58.7264 102.672 59.4868 102.376 60.448V63.944H104.46V65.7512H98.2972ZM105.299 59.3716V56.5965L105.654 55.293H107.501L107.037 59.3716H105.299ZM114.387 54.9967C115.427 54.9967 116.309 55.2238 117.033 55.6781C117.758 56.1324 118.307 56.7743 118.683 57.6039C119.064 58.4268 119.255 59.3913 119.255 60.4974C119.255 61.6298 119.064 62.6108 118.683 63.4403C118.301 64.2699 117.748 64.9118 117.023 65.3661C116.299 65.8203 115.417 66.0475 114.377 66.0475C113.343 66.0475 112.461 65.8269 111.73 65.3858C111.006 64.9381 110.453 64.3028 110.071 63.4798C109.689 62.6503 109.498 61.6627 109.498 60.5172C109.498 59.4243 109.689 58.463 110.071 57.6335C110.453 56.8039 111.009 56.1587 111.74 55.6979C112.471 55.2304 113.353 54.9967 114.387 54.9967ZM114.387 56.9619C113.656 56.9619 113.109 57.2483 112.747 57.8211C112.392 58.3939 112.214 59.2926 112.214 60.5172C112.214 61.7549 112.392 62.6602 112.747 63.2329C113.103 63.7991 113.646 64.0822 114.377 64.0822C115.108 64.0822 115.651 63.7991 116.006 63.2329C116.362 62.6602 116.54 61.7483 116.54 60.4974C116.54 59.2794 116.362 58.3873 116.006 57.8211C115.651 57.2483 115.111 56.9619 114.387 56.9619ZM130.901 53.8215L131.553 55.8559C131.158 55.9941 130.713 56.0929 130.219 56.1521C129.726 56.2048 129.159 56.2311 128.521 56.2311C129.159 56.5077 129.643 56.8599 129.973 57.2878C130.308 57.7092 130.476 58.2458 130.476 58.8976C130.476 59.5757 130.302 60.1814 129.953 60.7147C129.61 61.2479 129.12 61.666 128.481 61.9689C127.849 62.2717 127.095 62.4231 126.22 62.4231C125.95 62.4231 125.71 62.41 125.499 62.3836C125.288 62.3573 125.084 62.3211 124.887 62.275C124.755 62.3474 124.653 62.4528 124.58 62.591C124.508 62.7293 124.472 62.8708 124.472 63.0157C124.472 63.2132 124.548 63.3844 124.699 63.5292C124.857 63.6675 125.193 63.7366 125.706 63.7366H127.484C128.254 63.7366 128.929 63.8683 129.508 64.1316C130.094 64.3884 130.549 64.7373 130.871 65.1784C131.2 65.6195 131.365 66.1265 131.365 66.6993C131.365 67.7527 130.907 68.5756 129.992 69.1682C129.077 69.7607 127.741 70.057 125.983 70.057C124.725 70.057 123.744 69.9286 123.04 69.6718C122.342 69.4151 121.851 69.0398 121.568 68.546C121.285 68.0588 121.144 67.4696 121.144 66.7783H123.464C123.464 67.1141 123.53 67.3906 123.662 67.6078C123.8 67.8251 124.054 67.9864 124.422 68.0917C124.798 68.1971 125.334 68.2497 126.032 68.2497C126.73 68.2497 127.276 68.1938 127.672 68.0819C128.073 67.9699 128.356 67.8086 128.521 67.598C128.685 67.3939 128.768 67.1536 128.768 66.877C128.768 66.5018 128.61 66.2088 128.294 65.9981C127.978 65.7874 127.53 65.6821 126.951 65.6821H125.222C124.169 65.6821 123.402 65.478 122.921 65.0698C122.441 64.655 122.2 64.1777 122.2 63.6378C122.2 63.2692 122.299 62.9169 122.497 62.5812C122.701 62.2388 122.99 61.9491 123.366 61.7121C122.721 61.3697 122.253 60.9616 121.963 60.4875C121.68 60.0069 121.539 59.4275 121.539 58.7494C121.539 57.9923 121.73 57.3339 122.112 56.7743C122.493 56.2147 123.023 55.7802 123.702 55.4707C124.38 55.1613 125.16 55.0066 126.042 55.0066C126.852 55.0132 127.54 54.9638 128.106 54.8584C128.679 54.7531 129.182 54.6083 129.617 54.4239C130.058 54.2396 130.486 54.0388 130.901 53.8215ZM126.091 56.7447C125.473 56.7447 124.999 56.9257 124.669 57.2878C124.347 57.6499 124.185 58.1306 124.185 58.7297C124.185 59.3485 124.353 59.839 124.689 60.2011C125.025 60.5632 125.496 60.7443 126.101 60.7443C126.7 60.7443 127.155 60.5698 127.464 60.2209C127.78 59.8654 127.938 59.3584 127.938 58.7C127.938 58.0417 127.78 57.5512 127.464 57.2286C127.155 56.906 126.697 56.7447 126.091 56.7447ZM133.826 65.7512V63.944H135.298V57.0903H133.826V55.293H137.283L137.767 57.6927C138.148 56.8039 138.629 56.1357 139.208 55.688C139.788 55.2337 140.515 55.0066 141.391 55.0066C141.727 55.0066 142.023 55.0329 142.28 55.0856C142.543 55.1382 142.793 55.2074 143.03 55.293L142.25 57.4853C142.046 57.4327 141.852 57.3932 141.667 57.3668C141.483 57.3339 141.276 57.3175 141.045 57.3175C140.321 57.3175 139.689 57.6006 139.149 58.1668C138.616 58.7264 138.201 59.4868 137.905 60.448V63.944H139.989V65.7512H133.826ZM140.828 59.3716V56.5965L141.183 55.293H143.03L142.566 59.3716H140.828ZM153.915 62.9959C153.915 63.3975 153.975 63.6905 154.093 63.8749C154.212 64.0526 154.402 64.1876 154.666 64.2798L154.103 66.0277C153.543 65.9685 153.066 65.8302 152.671 65.613C152.283 65.3891 151.983 65.0566 151.772 64.6155C151.377 65.0961 150.877 65.455 150.271 65.692C149.672 65.929 149.043 66.0475 148.385 66.0475C147.318 66.0475 146.472 65.7446 145.847 65.1389C145.221 64.5332 144.909 63.7465 144.909 62.7787C144.909 61.666 145.343 60.8101 146.212 60.211C147.088 59.6053 148.326 59.3025 149.926 59.3025H151.387V58.7395C151.387 58.1207 151.196 57.673 150.814 57.3965C150.432 57.1134 149.883 56.9718 149.165 56.9718C148.829 56.9718 148.408 57.0179 147.901 57.1101C147.401 57.1957 146.884 57.3306 146.351 57.515L145.728 55.7275C146.393 55.4773 147.062 55.293 147.733 55.1745C148.411 55.056 149.027 54.9967 149.58 54.9967C151.048 54.9967 152.138 55.3094 152.849 55.9349C153.56 56.5538 153.915 57.4327 153.915 58.5717V62.9959ZM149.234 64.1613C149.629 64.1613 150.028 64.0493 150.429 63.8255C150.837 63.6016 151.157 63.2889 151.387 62.8873V60.8529H150.36C149.392 60.8529 148.691 61.0076 148.257 61.3171C147.829 61.6265 147.615 62.0643 147.615 62.6305C147.615 63.1177 147.753 63.4963 148.029 63.7662C148.306 64.0296 148.708 64.1613 149.234 64.1613ZM164.85 54.9967C165.297 54.9967 165.679 55.0922 165.995 55.2831C166.311 55.4674 166.555 55.7802 166.726 56.2213C166.897 56.6558 166.983 57.2483 166.983 57.9989V65.7512H164.711V58.3248C164.711 57.8507 164.672 57.515 164.593 57.3175C164.521 57.12 164.353 57.0212 164.089 57.0212C163.872 57.0212 163.651 57.087 163.428 57.2187C163.21 57.3438 162.983 57.5709 162.746 57.9001V65.7512H160.781V58.3248C160.781 57.8507 160.741 57.515 160.662 57.3175C160.59 57.12 160.422 57.0212 160.159 57.0212C159.935 57.0212 159.714 57.087 159.497 57.2187C159.28 57.3438 159.053 57.5709 158.816 57.9001V65.7512H156.515V55.293H158.46L158.628 56.3793C158.938 55.9448 159.263 55.6057 159.606 55.3621C159.948 55.1185 160.36 54.9967 160.84 54.9967C161.235 54.9967 161.584 55.0955 161.887 55.293C162.196 55.4839 162.417 55.8131 162.549 56.2805C162.852 55.8987 163.191 55.5892 163.566 55.3522C163.941 55.1152 164.369 54.9967 164.85 54.9967ZM177.601 62.9959C177.601 63.3975 177.661 63.6905 177.779 63.8749C177.898 64.0526 178.088 64.1876 178.352 64.2798L177.789 66.0277C177.229 65.9685 176.752 65.8302 176.357 65.613C175.969 65.3891 175.669 65.0566 175.458 64.6155C175.063 65.0961 174.563 65.455 173.957 65.692C173.358 65.929 172.729 66.0475 172.071 66.0475C171.004 66.0475 170.158 65.7446 169.533 65.1389C168.907 64.5332 168.595 63.7465 168.595 62.7787C168.595 61.666 169.029 60.8101 169.898 60.211C170.774 59.6053 172.012 59.3025 173.612 59.3025H175.073V58.7395C175.073 58.1207 174.882 57.673 174.5 57.3965C174.118 57.1134 173.569 56.9718 172.851 56.9718C172.515 56.9718 172.094 57.0179 171.587 57.1101C171.087 57.1957 170.57 57.3306 170.037 57.515L169.414 55.7275C170.079 55.4773 170.748 55.293 171.419 55.1745C172.097 55.056 172.713 54.9967 173.266 54.9967C174.734 54.9967 175.824 55.3094 176.535 55.9349C177.246 56.5538 177.601 57.4327 177.601 58.5717V62.9959ZM172.92 64.1613C173.315 64.1613 173.714 64.0493 174.115 63.8255C174.523 63.6016 174.843 63.2889 175.073 62.8873V60.8529H174.046C173.078 60.8529 172.377 61.0076 171.943 61.3171C171.515 61.6265 171.301 62.0643 171.301 62.6305C171.301 63.1177 171.439 63.4963 171.715 63.7662C171.992 64.0296 172.394 64.1613 172.92 64.1613ZM183.391 64.0032C183.391 63.6346 183.479 63.2955 183.657 62.9861C183.842 62.6766 184.088 62.4297 184.398 62.2454C184.707 62.061 185.05 61.9689 185.425 61.9689C185.807 61.9689 186.152 62.061 186.462 62.2454C186.771 62.4297 187.015 62.6766 187.193 62.9861C187.377 63.2955 187.469 63.6346 187.469 64.0032C187.469 64.3719 187.377 64.7143 187.193 65.0303C187.015 65.3397 186.771 65.5866 186.462 65.771C186.152 65.9553 185.807 66.0475 185.425 66.0475C185.05 66.0475 184.707 65.9553 184.398 65.771C184.088 65.5866 183.842 65.3397 183.657 65.0303C183.479 64.7143 183.391 64.3719 183.391 64.0032Z" fill="#5B88E1"/>
</svg>
